# xmcd
#
# Track frame offsets: 
#        150
#        19757
#        44397
#        64852
#        89925
#        108597
#        137330
#        164385
#        188477
#
# Disc length: 2886 seconds
#
# Revision: 0
# Processed by: cddbd v1.5.2PL0 Copyright (c) Steve Scherf et al.
# Submitted via: ExactAudioCopy v1.1
#
DISCID=770b4409
DTITLE=The Williams Brothers - Hand In Hand
DYEAR=1986
DGENRE=Gospel
TTITLE0=I'm Waiting
TTITLE1=The Goat
TTITLE2=Sweep Around
TTITLE3=What A Difference
TTITLE4=Beautiful World
TTITLE5=God Will Deliver
TTITLE6=All The Way
TTITLE7=Never Could Have Made It
TTITLE8=It Takes Faith
EXTD=
EXTT0=
EXTT1=
EXTT2=
EXTT3=
EXTT4=
EXTT5=
EXTT6=
EXTT7=
EXTT8=
PLAYORDER=
